HIERARCHY
ROOT Hips
{
	OFFSET -3.958830 18.904000 13.208200
	CHANNELS 6 Xposition Yposition Zposition Zrotation Yrotation Xrotation 
	JOINT LHipJoint
	{
		OFFSET 0.000000 0.000000 0.000000
		CHANNELS 3 Zrotation Yrotation Xrotation
		JOINT LeftUpLeg
		{
			OFFSET 1.800000 -1.400000 0.085000
			CHANNELS 3 Zrotation Yrotation Xrotation
			JOINT LeftLeg
			{
				OFFSET 2.215000 -6.000000 0.000000
				CHANNELS 3 Zrotation Yrotation Xrotation
				JOINT LeftFoot
				{
					OFFSET 2.500000 -6.900000 0.000000
					CHANNELS 3 Zrotation Yrotation Xrotation
					JOINT LeftToeBase
					{
						OFFSET 0.200000 -0.500000 1.950000
						CHANNELS 3 Zrotation Yrotation Xrotation
						End Site
						{
							OFFSET 0.000000 0.000000 0.000000
						}
					}
				}
			}
		}
	}
	JOINT RHipJoint
	{
		OFFSET 0.000000 0.000000 0.000000
		CHANNELS 3 Zrotation Yrotation Xrotation
		JOINT RightUpLeg
		{
			OFFSET -1.800000 -1.400000 0.085000
			CHANNELS 3 Zrotation Yrotation Xrotation
			JOINT RightLeg
			{
				OFFSET -2.215000 -6.000000 0.000000
				CHANNELS 3 Zrotation Yrotation Xrotation
				JOINT RightFoot
				{
					OFFSET -2.500000 -6.900000 0.000000
					CHANNELS 3 Zrotation Yrotation Xrotation
					JOINT RightToeBase
					{
						OFFSET -0.200000 -0.500000 1.950000
						CHANNELS 3 Zrotation Yrotation Xrotation
						End Site
						{
							OFFSET 0.000000 0.000000 0.000000
						}
					}
				}
			}
		}
	}
	JOINT LowerBack
	{
		OFFSET 0.000000 0.000000 0.000000
		CHANNELS 3 Zrotation Yrotation Xrotation
		JOINT Spine
		{
			OFFSET -0.087000 1.940000 -0.288900
			CHANNELS 3 Zrotation Yrotation Xrotation
			JOINT Spine1
			{
				OFFSET 0.000000 1.950000 0.060000
				CHANNELS 3 Zrotation Yrotation Xrotation
				JOINT Neck
				{
					OFFSET 0.000000 0.000000 0.000000
					CHANNELS 3 Zrotation Yrotation Xrotation
					JOINT Neck1
					{
						OFFSET 0.000000 1.600000 0.340000
						CHANNELS 3 Zrotation Yrotation Xrotation
						JOINT Head
						{
							OFFSET 0.000000 1.667000 -0.240000
							CHANNELS 3 Zrotation Yrotation Xrotation
							End Site
							{
								OFFSET 0.000000 0.000000 0.000000
							}
						}
					}
				}
				JOINT LeftShoulder
				{
					OFFSET 0.000000 0.000000 0.000000
					CHANNELS 3 Zrotation Yrotation Xrotation
					JOINT LeftArm
					{
						OFFSET 2.700000 1.550000 -0.730000
						CHANNELS 3 Zrotation Yrotation Xrotation
						JOINT LeftForeArm
						{
							OFFSET 5.450000 0.000000 0.000000
							CHANNELS 3 Zrotation Yrotation Xrotation
							JOINT LeftHand
							{
								OFFSET 3.450000 0.000000 0.000000
								CHANNELS 3 Zrotation Yrotation Xrotation
								JOINT LeftHandIndex1
								{
									OFFSET 0.750000 0.000000 0.000000
									CHANNELS 3 Zrotation Yrotation Xrotation
									End Site
									{
										OFFSET 0.000000 0.000000 0.000000
									}
								}
							}
						}
					}
				}
				JOINT RightShoulder
				{
					OFFSET 0.000000 0.000000 0.000000
					CHANNELS 3 Zrotation Yrotation Xrotation
					JOINT RightArm
					{
						OFFSET -2.700000 1.550000 -0.730000
						CHANNELS 3 Zrotation Yrotation Xrotation
						JOINT RightForeArm
						{
							OFFSET -5.450000 0.000000 0.000000
							CHANNELS 3 Zrotation Yrotation Xrotation
							JOINT RightHand
							{
								OFFSET -3.450000 0.000000 0.000000
								CHANNELS 3 Zrotation Yrotation Xrotation
								JOINT RightHandIndex1
								{
									OFFSET -0.750000 0.000000 0.000000
									CHANNELS 3 Zrotation Yrotation Xrotation
									End Site
									{
										OFFSET 0.000000 0.000000 0.000000
									}
								}
							}
						}
					}
				}
			}
		}
	}
}
MOTION
Frames: 6
Frame Time: 0.016667
0.893160 17.304190 -3.151230 -11.788155 -2.662297 -10.085522 -15.118789 12.582806 1.498252 13.713439 -1.420656 0.975932 -7.612102 9.602198 23.300609 0.124487 6.272895 2.343558 0.445970 0.455910 0.275490 18.768429 -7.852272 5.820278 -6.764600 13.474866 -58.668992 -9.850003 -31.794289 121.074757 -4.144348 -19.143237 -1.064170 0.334730 -0.060660 0.003580 -4.363997 -3.771566 -8.533823 20.741986 -16.304921 26.960333 -6.292000 -11.233138 11.695379 0.863795 -9.427217 -9.846336 -25.919286 10.514997 42.787707 -3.052360 3.473480 -11.278200 -8.715369 -4.703503 2.285170 -13.613208 -10.061505 0.433192 -141.771470 -68.264342 120.967564 -3.519984 3.209450 0.321830 -0.065680 0.143760 0.113530 7.764443 6.312845 5.079033 8.208988 -6.151720 -5.541014 -1.979648 46.060652 1.095399 2.046634 -1.648134 -0.076550 0.248940 -0.100790 -0.120540 
0.902120 17.270120 -3.178670 -12.019578 -3.384424 -10.537175 -15.122337 12.545597 1.498889 14.140192 -1.529738 0.900510 -7.968034 9.956653 24.176362 0.138669 6.438411 2.277038 0.458390 0.470730 0.282930 18.775685 -7.815682 5.884032 -5.398992 14.546370 -59.654508 -11.382406 -29.753322 121.931155 -4.095856 -18.882706 -1.015152 0.343620 -0.068850 0.003490 -4.369368 -3.713009 -8.573427 20.976616 -16.374173 28.619070 -6.261887 -11.030022 11.482071 0.804005 -9.718976 -9.723549 -26.149915 10.365452 41.640980 -2.896020 3.263140 -12.551230 -9.108744 -4.758240 2.111580 -12.172044 -9.483670 -0.020019 -145.601208 -68.273295 126.167787 -3.506039 3.229174 0.337950 -0.079010 0.154800 0.112100 8.277678 6.585389 5.106569 7.380382 -6.511497 -5.582368 -4.515437 45.674036 0.278708 2.046388 -1.624046 -0.076620 0.259300 -0.100210 -0.122760 
0.935030 17.179520 -3.206860 -12.207704 -4.404156 -11.648191 -15.153364 12.396706 1.474223 14.786090 -1.750249 0.987204 -8.976149 10.937447 26.498430 0.212970 6.919965 2.097583 0.465870 0.473910 0.296920 18.774999 -7.515798 6.194125 -7.427857 15.668715 -63.007415 -9.663969 -34.417815 124.516849 -4.378592 -19.892763 -1.183574 0.346270 -0.085500 0.010900 -4.335729 -3.720871 -8.745277 20.938932 -16.627061 31.829103 -6.018166 -10.743569 11.151369 0.849489 -10.065466 -9.491950 -26.070445 9.761409 39.714566 -3.347220 2.963840 -14.150210 -10.101933 -5.002397 1.857745 -9.567946 -8.602887 -0.600630 -155.218771 -68.774469 140.191130 -3.500474 3.268551 0.355310 -0.090960 0.165790 0.100300 9.197130 7.101396 5.166085 4.926572 -7.328752 -5.235840 -9.094076 44.713724 -1.040879 2.057972 -1.602809 -0.075310 0.258890 -0.094740 -0.132180 
0.961960 17.064820 -3.248020 -11.869977 -5.520225 -12.336672 -15.178571 12.251311 1.467682 14.819456 -2.053253 0.281840 -9.767969 11.948308 29.499875 0.276910 7.437201 1.917123 0.466290 0.473630 0.296580 18.778096 -7.291079 6.429281 -8.977339 16.524259 -66.146929 -7.418549 -38.033151 124.973177 -4.579675 -20.702004 -1.311909 0.363460 -0.071410 0.006230 -4.324666 -3.681398 -8.850442 20.560831 -16.902000 34.983334 -6.018385 -10.647365 10.418755 0.648899 -10.810372 -9.063169 -26.263088 9.733200 35.805271 -3.800240 3.103630 -15.751550 -11.110189 -4.604488 1.627961 -7.343234 -7.002363 -1.250895 -166.954775 -70.320121 157.728671 -3.542895 3.293788 0.359080 -0.083190 0.152130 0.098600 10.588462 7.192946 4.883855 2.315674 -7.710897 -4.815503 -13.124934 44.024052 -2.244558 2.067496 -1.609668 -0.096190 0.281640 -0.084440 -0.139720 
0.979270 16.961820 -3.305550 -11.624236 -6.234349 -12.612610 -15.208191 12.168919 1.494087 14.745944 -2.542093 -1.366924 -9.968082 12.762050 32.866450 0.359764 7.903553 1.748547 0.460010 0.462940 0.302680 18.763052 -7.126499 6.587328 -9.684969 17.094989 -68.776961 -4.235764 -40.328428 122.582655 -4.663643 -21.157259 -1.394662 0.361670 -0.067270 0.017440 -4.273664 -3.713877 -8.940152 19.855517 -16.962699 37.352720 -5.789080 -10.419994 9.632761 0.673379 -10.946075 -8.746562 -25.415924 9.449646 33.395777 -4.918260 3.600510 -15.913290 -12.253868 -4.806876 1.434327 -5.748951 -6.498667 -1.694164 -175.387848 -71.855349 170.075039 -3.589234 3.324619 0.339420 -0.062780 0.140530 0.097090 11.645898 7.526127 4.791002 0.936802 -7.934168 -4.691073 -16.423862 44.013961 -3.303993 2.080027 -1.631389 -0.096290 0.266730 -0.087050 -0.144820 
1.007800 16.891170 -3.330950 -10.917534 -8.028892 -12.636663 -15.196406 12.005272 1.578793 14.086391 -2.785291 -2.280783 -11.027987 13.702152 34.995124 0.440082 8.323245 1.601835 0.460840 0.468200 0.306950 18.788372 -7.125808 6.626680 -10.014696 17.551264 -69.224997 -0.609528 -40.518505 117.711073 -4.568567 -20.957791 -1.392313 0.374490 -0.064660 0.019470 -4.365789 -3.425237 -8.959732 20.067954 -16.788533 38.590479 -6.751530 -9.965416 9.131941 0.662922 -11.362655 -8.315563 -25.546258 9.224440 31.402506 -5.840470 3.494160 -16.471960 -13.132705 -4.168566 1.088073 -6.278244 -6.224514 -2.046582 -177.303201 -74.092046 172.903539 -3.618910 3.319061 0.325340 -0.050600 0.131010 0.090710 12.398233 7.164284 4.511403 1.759920 -7.204102 -5.029141 -20.431710 43.793458 -4.580694 2.071664 -1.613429 -0.099310 0.270230 -0.081800 -0.147640 
